<?xml version="1.0" encoding="UTF-8"?>
<!DOCTYPE svg PUBLIC "-//W3C//DTD SVG 1.1//EN" "http://www.w3.org/Graphics/SVG/1.1/DTD/svg11.dtd">
<!-- Creator: CorelDRAW X8 -->
<svg xmlns="http://www.w3.org/2000/svg" xml:space="preserve" width="210mm" height="297mm" version="1.1" style="shape-rendering:geometricPrecision; text-rendering:geometricPrecision; image-rendering:optimizeQuality; fill-rule:evenodd; clip-rule:evenodd"
viewBox="0 0 21000 29700"
 xmlns:xlink="http://www.w3.org/1999/xlink">
 <defs>
  <style type="text/css">
   <![CDATA[
    .str0 {stroke:#E7D5E3;stroke-width:100}
    .fil8 {fill:none}
    .fil0 {fill:#F3EAF1}
    .fil7 {fill:#F0DBEC}
    .fil6 {fill:url(#id0)}
    .fil3 {fill:url(#id1)}
    .fil4 {fill:url(#id2)}
    .fil5 {fill:url(#id3)}
    .fil2 {fill:url(#id4)}
    .fil1 {fill:url(#id5)}
   ]]>
  </style>
  <linearGradient id="id0" gradientUnits="userSpaceOnUse" x1="10338.8" y1="6557.81" x2="11457.1" y2="6557.81">
   <stop offset="0" style="stop-opacity:1; stop-color:#F3EAF1"/>
   <stop offset="0.529412" style="stop-opacity:1; stop-color:#F8F4F7"/>
   <stop offset="1" style="stop-opacity:1; stop-color:#FEFEFE"/>
  </linearGradient>
  <linearGradient id="id1" gradientUnits="objectBoundingBox" x1="0%" y1="50%" x2="100%" y2="50%">
   <stop offset="0" style="stop-opacity:1; stop-color:#F3EAF1"/>
   <stop offset="0.780392" style="stop-opacity:1; stop-color:#F8F4F7"/>
   <stop offset="1" style="stop-opacity:1; stop-color:#FEFEFE"/>
  </linearGradient>
  <linearGradient id="id2" gradientUnits="userSpaceOnUse" x1="8867.22" y1="9914.58" x2="10313.1" y2="9914.58">
   <stop offset="0" style="stop-opacity:1; stop-color:#F3EAF1"/>
   <stop offset="0.458824" style="stop-opacity:1; stop-color:#F8F4F7"/>
   <stop offset="1" style="stop-opacity:1; stop-color:#FEFEFE"/>
  </linearGradient>
  <linearGradient id="id3" gradientUnits="userSpaceOnUse" x1="13741.1" y1="8153.57" x2="15562.5" y2="8153.57">
   <stop offset="0" style="stop-opacity:1; stop-color:#F3EAF1"/>
   <stop offset="0.290196" style="stop-opacity:1; stop-color:#F8F4F7"/>
   <stop offset="1" style="stop-opacity:1; stop-color:#FEFEFE"/>
  </linearGradient>
  <linearGradient id="id4" gradientUnits="userSpaceOnUse" xlink:href="#id1" x1="10035.9" y1="8573.68" x2="15184.2" y2="8573.68">
  </linearGradient>
  <linearGradient id="id5" gradientUnits="userSpaceOnUse" x1="6782.59" y1="5903.57" x2="8930.35" y2="5903.57">
   <stop offset="0" style="stop-opacity:1; stop-color:#F3EAF1"/>
   <stop offset="0.709804" style="stop-opacity:1; stop-color:#F8F4F7"/>
   <stop offset="1" style="stop-opacity:1; stop-color:#FEFEFE"/>
  </linearGradient>
 </defs>
 <g id="Слой_x0020_1">
  <metadata id="CorelCorpID_0Corel-Layer"/>
  <ellipse class="fil0 str0" cx="6277" cy="6841" rx="884" ry="804"/>
  <ellipse class="fil1 str0" cx="7856" cy="5904" rx="1074" ry="1366"/>
  <ellipse class="fil0 str0" cx="9519" cy="6237" rx="1117" ry="843"/>
  <ellipse class="fil0 str0" cx="4953" cy="7902" rx="2087" ry="654"/>
  <ellipse class="fil0 str0" cx="5863" cy="8818" rx="1292" ry="1880"/>
  <ellipse class="fil0 str0" cx="7586" cy="9490" rx="1723" ry="672"/>
  <ellipse class="fil0 str0" cx="8867" cy="8180" rx="2590" ry="1339"/>
  <ellipse class="fil0 str0" cx="11457" cy="7136" rx="1832" ry="1098"/>
  <ellipse class="fil0 str0" cx="7681" cy="11005" rx="1818" ry="1515"/>
  <ellipse class="fil0 str0" cx="9917" cy="10255" rx="2235" ry="765"/>
  <ellipse class="fil2 str0" cx="12610" cy="8574" rx="2574" ry="1589"/>
  <ellipse class="fil0 str0" cx="10352" cy="10538" rx="1484" ry="2357"/>
  <ellipse class="fil0 str0" cx="12961" cy="10818" rx="3044" ry="1327"/>
  <ellipse class="fil0 str0" cx="15494" cy="8669" rx="2533" ry="2149"/>
  <ellipse class="fil3" cx="8170" cy="7752" rx="429" ry="268"/>
  <ellipse class="fil3" cx="5242" cy="7914" rx="289" ry="641"/>
  <ellipse class="fil4" cx="9590" cy="9915" rx="723" ry="623"/>
  <ellipse class="fil5" cx="14652" cy="8154" rx="911" ry="509"/>
  <ellipse class="fil6" cx="10898" cy="6558" rx="559" ry="520"/>
  <g id="_2623500955328">
   <path class="fil7" d="M8475 5276c-364,-124 -584,-17 -624,96 70,46 146,103 228,174l0 0c3,0 11,4 40,16 23,54 23,27 0,81l-40 17c-147,-10 -339,-37 -359,-222 -1,-7 -1,-14 -2,-21 -281,-164 -520,-202 -450,340 0,1 0,2 0,3 19,-15 34,-23 42,-25 557,-118 528,196 71,177 -55,-2 -101,-31 -137,-76 -16,12 -31,25 -46,39 -657,677 615,302 23,566 -107,48 -122,75 -92,91 -154,-38 218,-113 235,-180 -649,16 -327,-391 -145,-552 -143,-246 -43,-787 515,-497 90,-250 544,-244 796,-167 38,15 57,59 42,97 -15,39 -58,58 -97,43zm-1182 531c79,74 311,27 367,-16 -43,-21 -220,-57 -367,16zm376 -10l1 1c-1,0 -1,-1 -1,-1zm-540 735c44,22 179,21 278,22 -148,-4 -234,-11 -278,-22zm278 22c24,0 46,1 64,1 -23,0 -44,0 -64,-1z"/>
  </g>
  <path class="fil8" d="M8502 5206c-687,-269 -992,397 -423,397 -13,0 -975,-868 -849,159 37,300 976,-77 82,-3 -74,6 -704,634 59,582 52,59 -689,214 100,214"/>
  <g id="_2623500955360">
   <path class="fil7" d="M8824 7738c-227,-65 -1202,-302 -1115,250 41,257 230,262 330,297 8,-1 13,-1 14,-1l0 6c21,9 37,21 44,38 -7,15 -22,27 -44,35l0 9c-8,0 -16,-1 -24,-1 -171,44 -598,-14 -675,120 26,52 279,53 404,50 39,-17 75,-16 103,16l-12 25c-17,5 -46,9 -82,12 -103,33 -158,137 -172,247 241,17 361,28 413,42l0 -1 1 2c82,23 -13,55 -59,135 11,-37 27,-78 50,-122l-422 -22c-78,-7 0,-177 100,-276 -131,4 -292,-8 -352,-48 -192,-130 211,-207 490,-243 -125,-68 -210,-190 -216,-355 -23,-627 927,-444 1269,-358 39,13 61,55 49,94 -13,40 -55,62 -94,49zm-1470 752c-1,0 -1,0 -1,0l1 0zm596 529c-18,30 -28,68 -19,115 0,-33 5,-71 19,-115zm-19 115c4,21 12,44 25,69 40,76 55,-6 119,-91 -54,178 -145,153 -144,22zm144 -22c13,-17 28,-35 45,-51 -10,5 -21,10 -35,14 -3,13 -6,25 -10,37zm45 -51c9,-8 19,-16 29,-24l36 -21c-28,18 -43,33 -65,45zm-35 14l-1 0 1 -1 0 1z"/>
  </g>
  <path class="fil8" d="M8846 7667c-1480,-468 -1376,661 -793,661 -847,0 -1001,292 -239,236 115,-9 -238,-30 -238,293 9,-1 426,23 441,31 -195,264 -3,522 67,185 62,-13 34,-22 101,-57"/>
  <g id="_2623500954400">
   <path class="fil7" d="M9852 8006c-32,2 -692,105 -583,228 57,65 172,34 236,58l3 0 0 1c16,7 29,18 36,35 -3,6 -16,12 -36,17l0 19c-30,0 -67,0 -106,-2 -217,29 -596,64 -519,226 32,70 137,78 201,84 -69,-2 -157,-2 -206,-62 -124,-149 146,-235 371,-279 -23,-11 -42,-25 -57,-44 -212,-265 563,-419 660,-431 41,0 75,34 75,75 0,42 -34,75 -75,75z"/>
  </g>
  <path class="fil8" d="M9852 7931c-509,0 -948,397 -344,397 -735,0 -784,344 -424,344"/>
  <g id="_2623500951840">
   <path class="fil7" d="M10174 9493c56,-493 586,-676 569,-310 43,-21 100,-38 173,-49 195,-29 133,113 107,282 -17,105 -61,157 -166,156 193,-12 154,-259 141,-401 -67,11 -200,45 -269,103 -6,29 -16,60 -28,94 -32,89 -127,-10 -59,-108 43,-407 -310,2 -318,231 0,41 -33,75 -74,76 -42,1 -76,-32 -76,-74zm512 -151l0 2c0,0 0,-1 0,-2z"/>
  </g>
  <path class="fil8" d="M10249 9492c-6,-361 586,-738 416,-134 -65,0 80,-210 351,-210 0,129 45,440 -159,424"/>
  <g id="_2623500948576">
   <path class="fil7" d="M12066 8530c-128,-217 -429,-866 23,-969 184,-42 269,59 300,194 177,-290 497,-560 592,-466 7,8 4,365 -34,430 35,-66 21,-325 18,-412 -258,42 -463,315 -563,540 14,238 -94,501 -130,298 -14,-75 7,-166 48,-260 -7,-126 -48,-241 -182,-227 -379,40 -24,671 50,786 24,33 16,80 -18,104 -33,24 -80,16 -104,-18zm277 -394l0 1 0 0 0 -1z"/>
  </g>
  <path class="fil8" d="M12127 8487c-684,-968 461,-1230 205,-320 -125,0 187,-871 642,-871 0,67 9,380 -27,423"/>
  <g id="_2623500948352">
   <path class="fil7" d="M5461 9147c2,-2 181,-113 390,-222 -461,-264 -749,-852 -437,-945 2,-36 7,-76 15,-120 55,-308 345,-508 595,-433 35,11 61,25 80,40 26,-96 203,-109 202,-12 -2,-85 -183,-92 -192,20 42,40 44,87 34,115 2,4 4,7 7,11l-11 5c0,-2 -1,-4 -1,-6 -18,27 -50,15 -43,-95 -156,-206 -565,95 -596,192 -37,115 -56,206 -63,277 53,-10 121,-8 206,10 329,69 -220,545 -235,76 -204,119 190,636 546,810 275,-134 558,-234 542,-65 -10,111 -193,265 -352,234 -54,-11 -107,-27 -159,-47 -169,92 -335,203 -425,264 -30,28 -78,27 -106,-3 -28,-31 -27,-78 3,-106zm-23 -1099c12,332 399,34 197,-2 -88,-16 -152,-13 -197,2zm683 877c91,13 171,-8 227,-80 -66,12 -144,41 -227,80zm258 -130c1,-1 2,-2 2,-3 -1,1 -1,2 -2,3z"/>
  </g>
  <path class="fil8" d="M5513 9201c243,-229 1305,-674 787,-243 -275,229 -1523,-916 -734,-947 480,-19 -340,695 -80,-318 33,-128 595,-478 664,-88 -161,-229 166,-267 156,-150"/>
  <g id="_2623500947936">
   <path class="fil7" d="M7798 11630c-460,56 -1578,173 -911,-484 -145,4 -334,-28 -570,-132 -391,-172 -72,-441 243,-582 -202,-73 -371,-229 -212,-436 154,-199 474,-205 699,-213 -919,57 -875,551 -424,622 213,-84 401,-101 336,19 -34,64 -185,69 -336,28 -925,406 -9,682 390,580 284,-228 320,-10 68,80 -11,11 -25,24 -43,41 -640,605 305,393 740,329 41,-6 79,22 84,63 6,42 -23,79 -64,85zm-1074 -1216c59,1 123,-5 192,-19 -14,-34 -115,-7 -192,19z"/>
  </g>
  <path class="fil8" d="M7788 11556c-367,52 -1544,264 -787,-443 425,-397 135,228 -668,-135 -565,-255 660,-798 606,-564 -716,201 -1006,-631 108,-631"/>
 </g>
</svg>
