<?xml version="1.0" encoding="UTF-8"?>
<!DOCTYPE svg PUBLIC "-//W3C//DTD SVG 1.1//EN" "http://www.w3.org/Graphics/SVG/1.1/DTD/svg11.dtd">
<!-- Creator: CorelDRAW X8 -->
<svg xmlns="http://www.w3.org/2000/svg" xml:space="preserve" width="210mm" height="297mm" version="1.1" style="shape-rendering:geometricPrecision; text-rendering:geometricPrecision; image-rendering:optimizeQuality; fill-rule:evenodd; clip-rule:evenodd"
viewBox="0 0 21000 29700"
 xmlns:xlink="http://www.w3.org/1999/xlink">
 <defs>
  <style type="text/css">
   <![CDATA[
    .str1 {stroke:#812530;stroke-width:75}
    .str0 {stroke:#812530;stroke-width:50}
    .fil0 {fill:#E63744}
    .fil1 {fill:url(#id0)}
   ]]>
  </style>
  <linearGradient id="id0" gradientUnits="userSpaceOnUse" x1="9765.78" y1="6019.53" x2="8905.89" y2="5014.11">
   <stop offset="0" style="stop-opacity:1; stop-color:#E63744"/>
   <stop offset="1" style="stop-opacity:1; stop-color:#864190"/>
  </linearGradient>
 </defs>
 <g id="Слой_x0020_1">
  <metadata id="CorelCorpID_0Corel-Layer"/>
  <path class="fil0 str0" d="M9569 4576c18,29 117,218 -32,232 -226,20 -418,50 -438,-212 -34,-438 135,-510 -264,-710 -150,-75 -101,-98 -285,-173 -184,-76 -806,86 -966,169 -160,83 -564,788 -561,900 6,251 -96,500 -79,733 27,366 -70,222 47,548 37,101 187,1077 146,1147 -75,128 -160,415 -147,365 6,-26 116,-332 104,-399 -88,-459 -46,-637 -252,-1100 -19,-43 61,509 33,549 -27,39 -90,463 -104,550 -37,221 -293,362 -245,305 91,-108 85,-144 135,-273 246,-641 -21,-1259 52,-1571 54,-228 38,-351 38,-582 0,-353 87,-334 149,-591 75,-309 289,-679 591,-822 74,-35 870,-111 1010,-148 223,-61 534,369 716,461 162,82 235,431 352,622z"/>
  <path class="fil0 str1" d="M10424 5682c6,-211 -431,-488 -161,-836 144,-185 -111,-457 -415,-457 -493,0 -444,362 -773,678 -262,252 -386,409 -310,748 64,283 88,369 287,583 130,139 391,247 589,253 365,11 302,298 877,151 140,-36 311,-821 58,-953 -60,-31 -54,-169 -152,-203 -24,-8 2,-44 0,36z"/>
  <path class="fil0 str0" d="M9838 6694c-162,621 -235,570 -115,1173 94,474 -276,328 -522,208 -23,-12 -225,0 -414,-105 -3,-1 -204,-81 -94,-21 122,67 124,167 369,203 50,8 304,65 286,104 -44,95 -214,6 -214,95 1,0 205,-25 223,-48 18,-22 234,-132 234,55 0,251 -46,479 -46,735 0,41 -88,294 -87,451 0,121 -230,363 -251,613 -2,30 -25,57 86,-39 230,-199 257,-176 388,-467 108,-239 -46,135 224,299 209,127 459,705 253,86 -171,-515 -468,-688 -329,-1369 35,-174 123,-597 359,-525 156,47 87,13 240,87 367,175 -212,-159 -116,-156 230,7 217,-39 -34,-39 -258,0 -170,-70 -277,-314 -44,-99 -133,-270 -133,-356 0,-344 395,-398 317,-602 0,-1 -344,-221 -330,-91 2,15 -13,8 -17,23z"/>
  <path class="fil0 str0" d="M9980 4406c105,-185 214,-216 300,-428 109,-269 368,-242 588,-401 172,-125 457,-104 622,9 204,141 191,207 419,324 563,288 482,692 532,757 426,544 172,1148 344,1753 96,337 40,121 207,431 71,134 51,499 51,495 0,-419 -235,-410 -312,-750 -9,-40 -131,-542 -118,-256 10,212 -53,508 -53,781 0,218 -9,277 -51,10 -16,-103 1,-999 25,-1070 109,-331 9,-683 -59,-1005 -35,-167 -126,-84 -159,-381 -6,-55 -152,-418 -225,-441 -9,-3 -198,-134 -230,-158 -41,-31 -139,-55 -182,-149 -49,-106 -488,-344 -654,-226 -340,243 -538,143 -688,637 -37,119 -156,341 -299,199 0,-1 -68,-115 -58,-131z"/>
  <path class="fil1" d="M9709 5573c-19,-27 91,-679 -238,-565 -273,788 -269,105 -474,453 -7,11 99,681 178,681 1110,0 886,520 428,-60 -187,-236 326,-204 19,-614l87 105z"/>
 </g>
</svg>
