<?xml version="1.0" encoding="UTF-8"?>
<!DOCTYPE svg PUBLIC "-//W3C//DTD SVG 1.1//EN" "http://www.w3.org/Graphics/SVG/1.1/DTD/svg11.dtd">
<!-- Creator: CorelDRAW X8 -->
<svg xmlns="http://www.w3.org/2000/svg" xml:space="preserve" width="210mm" height="297mm" version="1.1" style="shape-rendering:geometricPrecision; text-rendering:geometricPrecision; image-rendering:optimizeQuality; fill-rule:evenodd; clip-rule:evenodd"
viewBox="0 0 21000 29700"
 xmlns:xlink="http://www.w3.org/1999/xlink">
 <defs>
  <style type="text/css">
   <![CDATA[
    .str0 {stroke:#D799A8;stroke-width:200}
    .str1 {stroke:#F0E9E2;stroke-width:150}
    .fil1 {fill:none}
    .fil0 {fill:#ECDAE3}
    .fil2 {fill:url(#id0)}
    .fil3 {fill:url(#id1)}
   ]]>
  </style>
  <linearGradient id="id0" gradientUnits="userSpaceOnUse" x1="10955.4" y1="11448.2" x2="11116.1" y2="4644.64">
   <stop offset="0" style="stop-opacity:1; stop-color:#ECDAE3"/>
   <stop offset="1" style="stop-opacity:1; stop-color:#FEFEFE"/>
  </linearGradient>
  <linearGradient id="id1" gradientUnits="userSpaceOnUse" x1="10794.6" y1="18198.2" x2="11330.4" y2="14608.9">
   <stop offset="0" style="stop-opacity:1; stop-color:#D290B2"/>
   <stop offset="1" style="stop-opacity:1; stop-color:#ECDAE3"/>
  </linearGradient>
 </defs>
 <g id="Слой_x0020_1">
  <metadata id="CorelCorpID_0Corel-Layer"/>
  <path class="fil0 str0" d="M5063 13564c357,-5357 8374,-11062 11035,295 -278,3747 -3430,1530 -4660,3375l-858 1286c-410,-616 304,-1232 -1232,-1849 -1148,757 -4244,440 -4285,-3107z"/>
  <path class="fil1 str1" d="M8652 9038c-1062,2054 -1648,2632 -1554,5035 3,80 -107,202 -107,590"/>
  <path class="fil1 str1" d="M11920 9413c1609,2150 1553,2781 1553,5357"/>
  <path class="fil1 str1" d="M8813 10163c-409,1870 -429,2923 -429,4767"/>
  <path class="fil1 str1" d="M10259 11341c0,1339 0,2701 0,4018"/>
  <path class="fil1 str1" d="M11973 11609c207,1275 857,1897 857,3429"/>
  <path class="fil1 str1" d="M14063 10538c259,1028 801,2358 696,3589"/>
  <path class="fil2" d="M13500 9038c-1137,-1059 -3642,-1568 -5102,-844 -19,10 -1049,2042 1267,1969 493,-16 967,267 2040,267 542,0 2013,-430 1795,-1392z"/>
  <path class="fil3" d="M10848 17127c1144,-444 3582,-1768 625,-1768 -341,0 -3227,-181 -2705,755 3,6 981,218 1526,763 627,628 288,26 554,250z"/>
 </g>
</svg>
