<?xml version="1.0" encoding="UTF-8"?>
<!DOCTYPE svg PUBLIC "-//W3C//DTD SVG 1.1//EN" "http://www.w3.org/Graphics/SVG/1.1/DTD/svg11.dtd">
<!-- Creator: CorelDRAW X8 -->
<svg xmlns="http://www.w3.org/2000/svg" xml:space="preserve" width="210mm" height="297mm" version="1.1" style="shape-rendering:geometricPrecision; text-rendering:geometricPrecision; image-rendering:optimizeQuality; fill-rule:evenodd; clip-rule:evenodd"
viewBox="0 0 21000 29700"
 xmlns:xlink="http://www.w3.org/1999/xlink">
 <defs>
  <style type="text/css">
   <![CDATA[
    .str0 {stroke:#D5B3BF;stroke-width:300}
    .str2 {stroke:#D5B3BF;stroke-width:75}
    .str1 {stroke:#D5B3BF;stroke-width:300;stroke-linecap:round}
    .fil1 {fill:none}
    .fil2 {fill:#FBFBF8}
    .fil0 {fill:#F3EBED}
   ]]>
  </style>
 </defs>
 <g id="Слой_x0020_1">
  <metadata id="CorelCorpID_0Corel-Layer"/>
  <path class="fil0 str0" d="M10243 4857c-499,-257 -1447,-578 -1546,88 -204,1372 -687,-929 -1533,413 -88,139 -1262,-3 -1493,63 -274,655 548,169 -570,801 -8,95 -207,312 -282,1055 -26,263 -911,488 -300,593 327,780 -834,-193 -834,1739 0,1010 -704,1306 353,1161 946,-131 -1276,961 423,2002 2216,1359 -1452,-289 763,345 820,1958 191,163 1634,1278 6,4 1799,-180 2115,-180 1226,0 1996,-1357 2339,-127 508,145 2051,13 2361,-243 676,-559 436,571 1787,-272 1178,-734 1763,1497 1763,-2157 0,-832 -504,590 -423,-1108 23,-487 -338,153 -282,-932 30,-578 -288,-327 129,-1050 260,-450 -1187,-1293 -1187,-1457 0,-1006 -539,-334 -1716,-1443 -499,-470 -2592,42 -2514,-773 -694,0 -1078,1115 -865,1414 256,357 -201,1157 19,-1064 11,-119 26,-59 -141,-146z"/>
  <path class="fil1 str1" d="M10848 9252c266,1623 -233,1294 94,2138 251,649 -258,2111 -254,2148"/>
  <path class="fil1 str2" d="M8545 8127c17,-882 -2032,-686 -117,-1349 27,-76 -823,-751 -414,-789 138,-14 -59,-239 -59,-487"/>
  <path class="fil1 str2" d="M5866 6573c1686,1104 -317,1335 1018,1340 317,1 -128,866 321,910"/>
  <path class="fil1 str2" d="M4937 8056c0,497 -223,1389 420,1260 407,-81 -120,674 533,178 480,-366 239,257 679,97 329,-120 463,66 939,66 82,0 165,0 247,0"/>
  <path class="fil1 str2" d="M4196 9988c291,912 802,279 949,692 112,311 849,124 265,-268 -440,-295 4,-542 -188,-488 -30,8 -20,60 -20,90"/>
  <path class="fil1 str2" d="M5294 12528c75,-137 722,-1557 900,-1467 585,299 388,-137 971,-296 70,-19 47,-24 100,-63"/>
  <path class="fil1 str2" d="M6591 13917c180,-1205 165,-510 504,-887 220,-244 -976,-152 -211,-617 45,-27 187,-122 183,-176"/>
  <path class="fil1 str2" d="M16275 13268c-1238,-982 -417,-1252 -1798,-680 -482,199 311,-726 96,-1017 -143,-193 211,-360 -424,-502 -27,-6 -181,-63 -57,-63"/>
  <path class="fil1 str2" d="M14621 10173c220,334 459,792 854,687 784,-208 385,354 732,276 115,-25 233,-286 615,-92"/>
  <path class="fil1 str2" d="M16469 8999c-1067,275 -989,476 -1249,-186 -78,-199 -494,326 -1176,315 -249,-4 -217,-36 -217,119"/>
  <path class="fil1 str2" d="M15560 7170c-382,303 -785,784 -1033,328 -155,-285 -281,262 -423,452 -17,22 -21,68 -26,93"/>
  <path class="fil1 str2" d="M13576 5463c-330,855 313,1187 -571,1164 -441,-11 325,518 -499,746 -99,27 -213,210 -213,313"/>
  <path class="fil1 str2" d="M13258 6707c198,642 656,318 158,1045 -20,30 -12,750 -12,847"/>
  <path class="fil1 str2" d="M12187 5371c-49,198 -108,912 -382,836 -259,-71 -62,279 -372,542 -38,32 -45,48 -66,90"/>
  <path class="fil1 str2" d="M8217 6854c826,814 810,148 998,629 58,149 277,78 286,216"/>
  <path class="fil1 str2" d="M14065 13688c-14,-87 -76,-1121 -263,-1121 -455,0 -538,292 -349,-168 96,-234 -207,-4 -406,-562 -19,-52 -62,-130 -119,-130"/>
  <path class="fil2" d="M10017 6872c-579,-1079 289,-811 -282,-1732 -30,-47 -302,-609 -287,-167 10,282 -285,711 -640,746 -474,46 -482,657 -198,657 645,0 277,455 677,438 84,-4 -18,-845 308,-796 179,26 -99,577 240,845 1,1 177,0 182,9z"/>
  <path class="fil2" d="M7484 6700c-206,-586 -290,92 -544,-606 -188,-517 -907,29 -545,249 453,275 495,629 474,1093 -8,154 229,-374 370,-486 57,-45 262,-200 245,-250z"/>
  <path class="fil2" d="M6327 8860c-333,-1019 154,-509 146,-1289 -4,-323 -916,-849 -798,-407 132,498 -454,419 -274,944 133,388 -506,757 502,663 105,114 416,446 423,127l1 -38z"/>
  <path class="fil2" d="M6981 11807c-1037,-344 -684,36 -865,137 0,186 -499,-223 -347,1020 23,182 502,733 439,-65 -73,-932 371,-516 664,-894 92,-119 379,12 109,-198z"/>
  <path class="fil2" d="M11519 7950c-565,-195 -683,363 -561,533 328,457 -413,201 155,362 751,214 -71,1647 730,1580 86,-7 439,-1208 -243,-1438 -199,-67 -351,-560 -35,-547 145,6 109,-372 -24,-399 -15,-43 26,-74 -22,-91z"/>
  <path class="fil2" d="M12061 11456c-393,-333 -833,-742 -853,30 -6,221 252,991 390,1215 178,290 -448,606 205,634 181,7 117,-600 155,-817 73,-412 -561,-843 -62,-824 54,2 378,-241 156,-209l9 -29z"/>
  <path class="fil2" d="M8621 9181c-33,248 -90,942 -464,939 -904,-8 -333,38 -1181,-267 -372,-134 -541,360 -369,360 590,0 450,-162 910,323 408,429 1211,274 562,744 -152,110 -689,1145 81,976 586,-128 -20,-440 587,-777 207,-115 122,-637 -236,-786 -45,-19 -234,-372 97,-559 485,-273 303,-1464 9,-1034 -5,8 6,69 4,81z"/>
 </g>
</svg>
