<?xml version="1.0" encoding="UTF-8"?>
<!DOCTYPE svg PUBLIC "-//W3C//DTD SVG 1.1//EN" "http://www.w3.org/Graphics/SVG/1.1/DTD/svg11.dtd">
<!-- Creator: CorelDRAW X8 -->
<svg xmlns="http://www.w3.org/2000/svg" xml:space="preserve" width="210mm" height="297mm" version="1.1" style="shape-rendering:geometricPrecision; text-rendering:geometricPrecision; image-rendering:optimizeQuality; fill-rule:evenodd; clip-rule:evenodd"
viewBox="0 0 21000 29700"
 xmlns:xlink="http://www.w3.org/1999/xlink">
 <defs>
  <style type="text/css">
   <![CDATA[
    .str0 {stroke:#2C5527;stroke-width:100}
    .str1 {stroke:#2B2A29;stroke-width:20}
    .fil2 {fill:none}
    .fil0 {fill:#B7D2B8}
    .fil1 {fill:#AAC8AA}
   ]]>
  </style>
 </defs>
 <g id="Слой_x0020_1">
  <metadata id="CorelCorpID_0Corel-Layer"/>
  <path class="fil0 str0" d="M3394 23997c889,-1329 -1291,-759 -505,-1996 10,-16 99,-1056 -371,-1342 -683,-415 462,-2372 -888,-4203 -318,-432 601,-3616 989,-3892 759,-540 419,1792 2765,-247 1440,-1251 2209,1316 5229,20 1083,-465 1697,744 3037,-151 695,-465 1179,887 3383,887 2237,0 78,1537 1903,2186 24,9 386,5884 -342,6433 -1038,783 -142,-910 -1952,1808 -199,298 -495,-158 -1568,768 -197,170 -1379,-97 -2413,322 -2735,1109 131,-2569 -2886,-1034 -526,268 612,1301 612,2369 0,286 -282,3210 -1046,1279 -457,-1154 918,-31 7,-1449 -321,-499 605,-619 -694,-964 -46,-12 -1042,-2865 674,-2797 11,0 730,-267 1078,-296 1161,-95 729,-1711 2318,-624 93,64 3422,-2422 1607,-2797 -240,-693 167,-2165 -1400,-1367 -533,271 -68,-475 -1391,574 -8,7 -2250,-328 -2659,-328 -574,0 -2302,-296 -2438,365 -202,70 -852,-366 -1059,529 -870,180 866,1106 335,2495 -844,2205 2316,2822 -568,4529 -709,420 -2104,-281 -1757,-1077z"/>
  <path class="fil1" d="M5413 23495c-794,209 -279,76 -742,367 -176,112 -839,-22 -858,504 -7,195 529,287 775,-12 77,-94 676,-371 832,-400 992,-187 639,-755 126,-481 -28,15 -74,7 -133,22z"/>
  <path class="fil1" d="M4699 21868c-92,-11 -1252,-86 -1389,-10 -30,17 -752,1251 362,789 785,-325 1255,431 1928,-316 140,-156 -168,-901 -666,-545 -407,291 -235,-321 -235,82z"/>
  <path class="fil1" d="M4342 19870c-835,-299 -1149,128 -1598,758 -112,157 732,97 829,554 37,171 313,-40 389,-295 133,-454 827,-315 1158,-453 289,-120 680,-677 97,-859 -361,-113 -872,297 -875,295z"/>
  <path class="fil1" d="M4309 17747c-951,-282 -1380,-4 -1475,923 -26,250 -27,224 390,235 160,4 383,-433 1125,-410 740,22 407,-1242 -40,-748z"/>
  <path class="fil1" d="M4342 15419c-346,-260 276,-543 -1362,-1043 -510,-156 -890,827 -667,1384 279,695 381,198 1093,449 424,150 59,546 1163,658 491,51 429,155 630,-576 171,-620 -558,-508 -662,-694 -65,-115 -110,-275 -195,-178z"/>
  <path class="fil1" d="M6465 13428c-178,-50 -820,-124 -959,0 -499,444 126,876 163,1344 7,87 88,1128 100,1151 33,56 389,541 465,535 643,-47 111,-1596 408,-1915 624,-672 -43,-1442 -177,-1115z"/>
  <path class="fil1" d="M8694 13124c-366,-5 -849,469 -770,796 249,1037 -483,962 -45,2249 35,104 564,388 564,-384 0,-492 175,-1332 706,-1496 475,-147 650,-362 521,-914 -126,-535 -895,-295 -946,-172 -61,148 58,-78 -30,-79z"/>
  <path class="fil1" d="M12749 13415c-324,-222 -1495,-767 -1818,-410 -470,518 -58,1018 -328,1717 -163,421 -50,2224 609,1937 455,-198 551,-128 551,-831 0,-667 60,-1153 578,-1635 232,-216 1,-201 491,-529 97,-66 -6,-197 -83,-249z"/>
  <path class="fil1" d="M13615 16001c0,-155 190,-2398 583,-2467 956,-170 1097,321 2008,-160 264,-139 904,822 241,1186 -1537,843 -1709,-380 -2003,1143 -22,116 -679,979 -657,410 2,-50 -172,-55 -172,-112z"/>
  <path class="fil1" d="M18411 16874c-129,-587 -668,-263 -1235,-284 -84,-4 -582,577 -1024,747 -258,99 -400,551 -281,867 139,366 227,712 688,217 409,-439 556,-1174 1264,-1094 738,83 661,60 661,-433 -70,0 -69,-1 -73,-20z"/>
  <path class="fil1" d="M18133 20532c-404,-154 -263,-166 -802,-248 -742,-113 -703,145 -1258,-540 -286,-353 -1527,844 -19,1122 1175,217 308,1043 1825,470 290,-110 373,-759 254,-804z"/>
  <path class="fil1" d="M14680 22496c-97,-402 35,-851 -400,-1273 -284,-276 -695,-453 -916,-21 -246,482 487,474 129,1362 -341,848 435,1441 1159,1015 111,-65 886,-260 445,-627 -422,-352 -260,-374 -339,-467 -23,-26 -30,15 -47,-26l-31 37z"/>
  <path class="fil2 str1" d="M2889 22001c245,-75 83,-587 863,-388 194,50 294,-50 431,-89"/>
  <path class="fil2 str1" d="M5189 18441c-550,-115 -450,233 -975,423 -122,44 -441,135 -441,279"/>
  <path class="fil2 str1" d="M1796 16702c601,314 478,688 1169,407 185,-75 429,142 623,142"/>
  <path class="fil2 str1" d="M6443 17521c-283,-2 -1113,-242 -833,-724 367,-631 -173,-622 -78,-869"/>
  <path class="fil2 str1" d="M3450 13038c354,249 237,355 740,611 302,155 296,884 430,930"/>
  <path class="fil2 str1" d="M7619 12433c751,1368 -179,1115 -236,2277 -3,66 16,154 -12,213"/>
  <path class="fil2 str1" d="M11142 12330c0,686 -600,1064 -827,1713 -148,420 -86,406 -86,800"/>
  <path class="fil2 str1" d="M10637 17360c-464,-200 -792,-591 -574,-1098 111,-256 -162,-457 -152,-572"/>
  <path class="fil2 str1" d="M12844 16949c147,-78 824,-750 543,-932 -336,-218 -371,-679 -235,-711"/>
  <path class="fil2 str1" d="M13650 12186c474,285 332,603 112,1116 -167,390 -292,478 -292,906"/>
  <path class="fil2 str1" d="M14331 18277c638,-418 598,97 1142,-1225 135,-327 363,-581 735,-581l27 13"/>
  <path class="fil2 str1" d="M18122 14222c-144,285 -653,1184 -986,1278 -133,38 -620,156 -663,322"/>
  <path class="fil2 str1" d="M18055 21913c-1274,-567 -1493,27 -1825,-158 -258,-143 -269,-537 -339,-562"/>
  <path class="fil2 str1" d="M14500 19543c-6,-325 825,-1371 1603,-496 396,446 933,143 992,149"/>
  <path class="fil2 str1" d="M15145 24208c389,-789 640,-491 285,-1478 -73,-203 -33,-449 -293,-560 -98,-42 -80,-233 -80,-315"/>
  <path class="fil2 str1" d="M12628 21010c424,21 407,823 157,1198 -160,240 -115,403 -43,613"/>
  <path class="fil2 str1" d="M6319 23267c-531,-322 -223,-644 -1127,-369 -72,21 -519,395 -519,240"/>
  <path class="fil2 str1" d="M2315 18347c-21,232 277,888 621,888 116,0 232,0 347,0"/>
  <path class="fil2 str1" d="M7580 17090c38,83 760,85 1005,-97 536,-398 203,-595 430,-1291 12,-37 70,-69 103,-91"/>
  <path class="fil2 str1" d="M11314 23643c173,166 590,743 915,435 100,-95 231,-278 381,-278"/>
  <path class="fil2 str1" d="M19045 17912c-137,-235 -44,-2260 -1212,-1653 -46,24 -201,13 -262,13"/>
 </g>
</svg>
