<?xml version="1.0" encoding="UTF-8"?>
<!DOCTYPE svg PUBLIC "-//W3C//DTD SVG 1.1//EN" "http://www.w3.org/Graphics/SVG/1.1/DTD/svg11.dtd">
<!-- Creator: CorelDRAW X8 -->
<svg xmlns="http://www.w3.org/2000/svg" xml:space="preserve" width="210mm" height="297mm" version="1.1" style="shape-rendering:geometricPrecision; text-rendering:geometricPrecision; image-rendering:optimizeQuality; fill-rule:evenodd; clip-rule:evenodd"
viewBox="0 0 21000 29700"
 xmlns:xlink="http://www.w3.org/1999/xlink">
 <defs>
  <style type="text/css">
   <![CDATA[
    .str1 {stroke:#E49C53;stroke-width:400}
    .str0 {stroke:#3D2103;stroke-width:250}
    .fil1 {fill:none}
    .fil0 {fill:#8D551D}
    .fil3 {fill:url(#id0)}
    .fil2 {fill:url(#id1)}
   ]]>
  </style>
  <linearGradient id="id0" gradientUnits="userSpaceOnUse" x1="16910.8" y1="12133.1" x2="14517.1" y2="11747.5">
   <stop offset="0" style="stop-opacity:1; stop-color:#8D551D"/>
   <stop offset="1" style="stop-opacity:1; stop-color:#E4D5C4"/>
  </linearGradient>
  <linearGradient id="id1" gradientUnits="userSpaceOnUse" xlink:href="#id0" x1="5791.92" y1="11641.3" x2="2330.36" y2="10537.5">
  </linearGradient>
 </defs>
 <g id="Слой_x0020_1">
  <metadata id="CorelCorpID_0Corel-Layer"/>
  <path class="fil0 str0" d="M7929 9225c381,-2831 -2181,-2671 -3933,-977 -1705,1647 -1553,6535 656,7749 1753,963 5145,-879 3772,-3410 -499,-919 -415,822 -415,-1782 0,-522 62,-1092 -80,-1580z"/>
  <path class="fil0 str0" d="M14590 9486c-355,-2753 2026,-2597 3654,-951 1583,1602 1443,6355 -610,7535 -1629,937 -4781,-854 -3505,-3315 464,-894 386,798 386,-1733 0,-508 -58,-1062 75,-1536z"/>
  <path class="fil1 str1" d="M8005 11844c0,0 2575,-4199 2468,13265"/>
  <path class="fil1 str1" d="M14592 11844c0,0 -2788,-4199 -2672,13265"/>
  <path class="fil2" d="M7152 8689c-1964,-1151 -3268,568 -3268,2491 0,1416 -321,3985 1982,3701 1268,-156 -1711,-2879 629,-4415 306,-201 943,-1211 657,-1777z"/>
  <path class="fil3" d="M17196 9386c-541,-767 -2424,-1515 -1326,1044 578,1347 -1523,2899 -312,4705 172,257 1183,398 1183,-1169 0,-2799 454,-1530 862,-3531 258,-1265 -339,-953 -407,-1049z"/>
 </g>
</svg>
