<?xml version="1.0" encoding="UTF-8"?>
<!DOCTYPE svg PUBLIC "-//W3C//DTD SVG 1.1//EN" "http://www.w3.org/Graphics/SVG/1.1/DTD/svg11.dtd">
<!-- Creator: CorelDRAW X8 -->
<svg xmlns="http://www.w3.org/2000/svg" xml:space="preserve" width="210mm" height="297mm" version="1.1" style="shape-rendering:geometricPrecision; text-rendering:geometricPrecision; image-rendering:optimizeQuality; fill-rule:evenodd; clip-rule:evenodd"
viewBox="0 0 21000 29700"
 xmlns:xlink="http://www.w3.org/1999/xlink">
 <defs>
  <style type="text/css">
   <![CDATA[
    .str0 {stroke:#892234;stroke-width:400}
    .str1 {stroke:#852316;stroke-width:50}
    .str2 {stroke:#E2D4C7;stroke-width:20}
    .fil3 {fill:none}
    .fil0 {fill:#C05E6E}
    .fil2 {fill:url(#id0)}
    .fil1 {fill:url(#id1)}
   ]]>
  </style>
  <linearGradient id="id0" gradientUnits="userSpaceOnUse" x1="10510.2" y1="6833.07" x2="12463.6" y2="2067.93">
   <stop offset="0" style="stop-opacity:1; stop-color:#C05E6E"/>
   <stop offset="1" style="stop-opacity:1; stop-color:#FEFEFE"/>
  </linearGradient>
  <linearGradient id="id1" gradientUnits="userSpaceOnUse" xlink:href="#id0" x1="4498.43" y1="17016.3" x2="2786.49" y2="22523.3">
  </linearGradient>
 </defs>
 <g id="Слой_x0020_1">
  <metadata id="CorelCorpID_0Corel-Layer"/>
  <path class="fil0 str0" d="M7607 4511c-1970,815 -4030,4443 -4312,6567 -17,123 -1186,13191 -98,10263 433,-1168 5099,-5849 6183,-7856 1101,-2036 2700,-4668 2700,-7024 0,-99 356,-5024 -388,-3652 -495,912 -4065,1693 -4085,1702z"/>
  <path class="fil1" d="M2896 16258c2075,983 894,91 3454,91 1338,0 -345,646 -967,2144 -200,482 -1789,1617 -1911,2359 -8,51 -445,1128 -445,-939 0,-490 -391,-3778 -131,-3655z"/>
  <path class="fil2" d="M7607 4511c215,843 781,864 1723,1396 748,424 1418,821 1568,1697 27,14 -363,2016 443,846 660,-960 1238,-5906 525,-5783 -2198,2198 -2578,927 -3442,1647 -148,123 -570,259 -817,197z"/>
  <path class="fil3 str1" d="M2932 18687c281,-421 491,-3614 818,-4527 711,-1980 1764,-5280 3093,-6824 84,-97 1805,-2478 1805,-2205"/>
  <path class="fil3 str1" d="M3850 18889c534,-1660 1103,-2370 1722,-4115 1296,-3656 750,-3167 2891,-5805 933,-1149 1408,-2964 2386,-4085 74,-84 81,-186 198,-176"/>
  <path class="fil3 str1" d="M4485 18325c952,-1703 1324,-2415 2072,-4177 192,-451 1160,-1443 1533,-2368 101,-250 1765,-1943 2284,-3118 575,-1306 1449,-1907 1449,-3734 0,-148 -76,-973 70,-996"/>
  <path class="fil3 str1" d="M10447 4284c-2741,2488 -2883,3041 -4359,6062 -583,1192 -32,1300 -917,2264 -529,575 -1838,3278 -1982,4077 -64,353 -421,1260 -294,1565"/>
  <path class="fil3 str2" d="M3850 18889c1790,-3421 2817,-5715 4095,-9483 1010,-2977 1135,-2441 2470,-4407 181,-268 228,-667 455,-856"/>
  <path class="fil3 str2" d="M7906 5094c-1335,1980 -1489,4306 -2578,6115 -1491,2474 -2338,4987 -1936,7857"/>
  <path class="fil3 str2" d="M6241 17234c176,-874 1675,-3640 2101,-4676 804,-1956 1377,-3832 2490,-5642 90,-146 1029,-1792 1029,-2080l-38 92"/>
 </g>
</svg>
