<?xml version="1.0" encoding="UTF-8"?>
<!DOCTYPE svg PUBLIC "-//W3C//DTD SVG 1.1//EN" "http://www.w3.org/Graphics/SVG/1.1/DTD/svg11.dtd">
<!-- Creator: CorelDRAW X8 -->
<svg xmlns="http://www.w3.org/2000/svg" xml:space="preserve" width="210mm" height="297mm" version="1.1" style="shape-rendering:geometricPrecision; text-rendering:geometricPrecision; image-rendering:optimizeQuality; fill-rule:evenodd; clip-rule:evenodd"
viewBox="0 0 21000 29700"
 xmlns:xlink="http://www.w3.org/1999/xlink">
 <defs>
  <style type="text/css">
   <![CDATA[
    .str0 {stroke:#2B2A29;stroke-width:75}
    .fil0 {fill:none}
   ]]>
  </style>
 </defs>
 <g id="Слой_x0020_1">
  <metadata id="CorelCorpID_0Corel-Layer"/>
  <path class="fil0 str0" d="M10203 1029c-114,288 -30,577 -45,865 -16,111 -167,94 -182,205 -16,109 58,337 89,456 48,77 43,143 91,220 40,64 134,139 174,203 182,266 225,521 278,754 2,153 22,268 -132,437 -492,233 -785,512 -1178,767 -397,160 -565,88 -1190,480 -182,12 -755,768 -635,2722 -53,278 -133,479 -159,833l-119 834 -424 1680c-67,918 97,2081 146,3122 33,555 -187,1129 -13,1591 200,532 280,1000 734,1385 141,-48 176,-141 143,-218 -208,-479 -299,-823 -282,-1118 44,-136 105,-237 132,-410 141,216 34,505 424,648 148,-174 -80,-494 -119,-740l-67 -596 -264 -701c130,-1037 570,-1692 727,-2659 -6,-704 35,-1107 96,-1296 155,-415 193,-615 434,-1032 132,471 413,649 396,1415 -51,186 -143,295 -155,556 -112,303 -38,653 -56,979 -265,1702 -748,3411 -794,5106 -4,819 150,1691 225,2537l-132 929 -66 609c-164,538 -393,854 -490,1614l-40 3717c-53,260 -688,1064 -1306,1852 88,663 740,635 851,666 352,-101 243,-182 363,-309 526,3 502,-723 754,-1084 194,-141 434,-200 582,-424 5,-287 -88,-502 -132,-754 -110,-1832 389,-1979 641,-2613 468,-745 393,-1570 377,-2387 203,-750 621,-1152 609,-2249 74,-1511 485,-1844 727,-2765 119,-719 96,-1709 358,-2157l95 3338c61,803 -48,1585 184,2410l246 874c12,106 50,163 36,318l-75 165 -266 647 -108 465 -57 271 12 282c8,194 207,765 213,1125l24 1535c3,221 -147,331 -156,645 27,88 35,259 24,350l-64 535 37 771c9,202 284,254 463,277 359,48 866,96 1277,-425l-24 -176c-71,-91 -142,-183 -214,-275l-390 -875c-189,-422 31,-849 287,-1689 255,-840 867,-2187 635,-3326 -59,-286 -107,-563 -142,-852l116 -1386c219,-1161 696,-2110 843,-3337 79,-667 193,-1459 205,-2050 21,-573 -22,-1231 -123,-1771 -70,-367 -321,-582 -390,-949 -2,-389 -82,-766 -357,-1111 29,-131 9,-272 34,-435 33,-215 109,-460 148,-634l106 -260c65,317 283,502 348,819 94,746 126,1549 282,2239l625 1937c-40,138 -113,330 -103,473l39 515c50,157 74,336 124,492l193 894c47,45 77,135 141,134l152 -3 -2 54c68,37 127,112 204,110l167 -4c68,25 150,123 206,76l177 -149c56,-7 210,10 209,-47l-7 -260 -212 -1257c217,-29 600,101 752,-14l65 -49 -499 -344c-89,-157 -247,-343 -335,-500l-423 -419c-6,-337 -92,-640 -98,-954 -15,-719 51,-1421 36,-2192 -20,-174 -114,-463 -178,-596 -69,-144 -165,-264 -242,-406 9,-376 46,-815 53,-1205l-182 -769c-112,-583 80,-1487 -32,-2070 -57,-196 -269,-366 -388,-513l-258 -192c-210,-156 -951,-274 -1549,-417 -387,-93 -703,-216 -813,-291 -178,-121 -183,-511 -184,-737 -1,-227 96,-498 197,-612 53,-65 63,-76 116,-141l45 -293c117,-42 89,1 117,-42 28,-44 141,-422 15,-627 -62,-30 -123,-16 -185,60 2,-136 89,-280 91,-415 -45,-497 -112,-857 -753,-1146 -872,-255 -1553,24 -1901,734z"/>
 </g>
</svg>
