<?xml version="1.0" encoding="UTF-8"?>
<!DOCTYPE svg PUBLIC "-//W3C//DTD SVG 1.1//EN" "http://www.w3.org/Graphics/SVG/1.1/DTD/svg11.dtd">
<!-- Creator: CorelDRAW X8 -->
<svg xmlns="http://www.w3.org/2000/svg" xml:space="preserve" width="210mm" height="297mm" version="1.1" style="shape-rendering:geometricPrecision; text-rendering:geometricPrecision; image-rendering:optimizeQuality; fill-rule:evenodd; clip-rule:evenodd"
viewBox="0 0 21000 29700"
 xmlns:xlink="http://www.w3.org/1999/xlink">
 <defs>
  <style type="text/css">
   <![CDATA[
    .str1 {stroke:#C3B09C;stroke-width:75}
    .str0 {stroke:#C3B09C;stroke-width:75;stroke-linejoin:round}
    .fil1 {fill:none}
    .fil0 {fill:#E1D8DD}
   ]]>
  </style>
 </defs>
 <g id="Слой_x0020_1">
  <metadata id="CorelCorpID_0Corel-Layer"/>
  <path class="fil0" d="M10394 838c0,0 -519,23 -774,284 -255,262 -288,400 -288,400 0,0 -81,402 83,821 164,418 278,509 318,569 39,59 165,206 165,206 0,0 53,51 56,94 3,43 20,123 -83,199 -102,76 -353,159 -353,159 0,0 -252,66 -546,82 -294,17 -325,-37 -615,-10 -290,28 -658,209 -658,209 0,0 -394,178 -576,254 -182,77 -837,245 -1045,407 -208,162 -417,-6 -1568,357 -1151,364 -982,288 -1273,341 -291,53 -562,15 -562,15 0,0 -248,-27 -718,215 -470,243 -187,63 -551,265 -365,203 -237,277 -237,277 19,33 61,41 117,34 15,-2 31,-5 48,-9 180,-41 444,-189 524,-212l-627 262c-83,137 9,143 121,111 103,-30 223,-92 241,-116 53,-71 260,-115 260,-115l-554 292c0,0 -56,102 69,109 57,3 178,-51 294,-110 142,-73 275,-155 275,-155l-287 219c0,0 -4,178 211,99 215,-80 410,-310 447,-327 36,-16 314,-1 516,-80 201,-79 148,-205 324,-248 175,-43 502,-40 502,-40l1082 63c0,0 1217,109 1442,-69 225,-179 522,-212 522,-212l583 -106c0,0 542,-158 717,-268 175,-110 262,-136 331,-126 69,10 97,83 97,83l11 183c0,0 -7,67 6,163 12,96 15,307 159,579 144,272 187,468 187,468l247 841c0,0 50,715 -199,1854 -249,1140 -314,1466 -314,1466 0,0 -305,667 221,2176 526,1509 -581,2964 -226,3612 355,649 433,2169 433,2169 0,0 -775,1122 -731,1508 44,385 841,305 841,305l570 -236c0,0 89,-33 36,-559 -53,-527 150,-133 22,-791 -128,-658 -110,-662 38,-2235 148,-1573 139,-1360 136,-1706 -4,-345 121,-624 214,-1127 92,-502 57,-1664 103,-1848 45,-184 105,-803 105,-803 0,0 41,-98 280,0 239,98 -150,-65 124,930 274,994 70,1144 185,1961 115,817 118,607 118,607 0,0 -255,1438 103,1896 358,459 306,1541 142,2061 -164,520 -152,849 -152,849 0,0 -14,537 230,855 244,319 1064,297 1184,69 120,-228 120,-228 120,-228 0,0 58,-345 -402,-926 -460,-581 -306,-490 -306,-490 0,0 110,-1434 421,-2343 311,-910 -172,-1180 -233,-1462 -61,-283 -62,-1495 -62,-1495l319 -1575c0,0 184,-645 -267,-2222 -451,-1577 -307,-2066 -307,-2066l543 -1721 71 -666c0,0 -44,-250 232,-131 276,120 1202,486 1880,616 677,130 1149,129 2305,93 1156,-36 423,-204 904,52 480,257 480,257 480,257 0,0 143,-54 340,82 198,136 395,316 481,295 86,-21 86,-21 86,-21l-64 -158c0,0 206,168 376,74 170,-94 -37,-122 -37,-122 0,0 -81,119 329,26 410,-92 -105,-179 -105,-179 0,0 74,-28 -235,-308 -309,-280 -359,-361 -1084,-445 -725,-83 -725,-83 -725,-83l-1172 -215c0,0 -611,-355 -1589,-455 -977,-100 -635,-447 -1944,-797 -1309,-349 -766,-85 -766,-85 0,0 -805,-17 -954,-136 -148,-119 -146,170 -148,-119 -2,-289 -2,-289 -2,-289 0,0 381,-388 462,-754 82,-366 31,-893 31,-893 0,0 -14,-294 -661,-532 -647,-239 -420,-49 -420,-49z"/>
  <g id="_2443261750480">
   <path class="fil1 str0" d="M10381 806c212,-1 684,130 826,275 353,362 235,285 315,565 29,100 10,385 -53,595 -32,105 0,0 -126,299 -65,155 -219,400 -361,526 -22,20 -5,39 -26,52 -7,5 -18,109 -28,109m-541 -2424c-205,0 -661,133 -798,280 -340,363 -225,285 -302,566 -27,100 -8,385 54,595 32,105 0,0 124,298 64,155 214,399 352,525 21,19 42,36 63,49 6,4 8,2 18,2m-9 0c12,88 75,149 -29,237 -56,47 -63,94 -149,119 -80,23 -102,33 -188,52 -107,23 -251,62 -261,61 -206,16 -210,9 -288,18 -234,29 -554,-45 -761,20 -150,48 -368,106 -460,150 -43,21 -649,296 -657,296m21 -5c-226,118 -651,211 -800,306 0,0 -128,47 -128,47 -128,64 -73,31 -162,73 -127,27 -398,45 -526,82 -233,65 -383,94 -558,125 -249,68 -531,153 -671,202 -146,52 -348,88 -504,135 -86,26 -230,68 -286,78 -136,32 -504,105 -635,105 -55,0 -307,7 -342,28 -3,2 201,-24 196,-24m-133 17c-108,8 -265,54 -352,94 -81,38 -235,93 -330,137 -87,40 -525,228 -548,292 0,1 -74,72 -81,82 -23,32 -139,107 -88,137 90,54 47,30 161,35 4,0 264,-122 282,-146 0,-1 57,-25 60,-36 51,-17 119,-69 181,-76 1,0 31,-9 36,-14m-644 273c-1,26 -87,164 -17,164 157,0 117,13 242,-60 31,-18 75,-62 119,-69 11,-1 220,-95 238,-108 11,-8 41,-8 52,-14m-459 220c-2,15 -127,199 82,127 105,-36 72,-21 176,-75 101,-53 179,-111 277,-163 10,-6 21,-14 34,-17m-105 57c-64,102 -143,64 -187,277 -3,14 132,41 171,-4 22,-25 324,-206 399,-270 78,-32 43,-37 162,-46 47,-4 302,-65 358,-78 75,-19 323,-263 412,-263m-843 -222c-40,51 -17,36 -70,86 -32,30 -62,89 -132,152 -43,39 -228,210 -169,259 59,49 257,26 310,-25 3,-2 87,-41 120,-72 84,-78 331,-127 379,-179 3,-4 40,-26 44,-39m361 40c143,-57 864,4 1041,9 162,4 397,11 456,11 72,0 230,1 368,13 157,9 426,11 573,0 212,-16 493,-45 682,-130 261,-117 720,-191 1011,-269 292,-79 469,-163 740,-293 192,-92 196,-47 288,-62 162,184 30,117 95,528 33,206 33,224 165,540m-19 -60c-1,9 253,749 281,837 23,71 69,215 87,278 40,134 93,204 93,403 0,29 3,56 3,80 0,713 -145,1119 -267,1766 -148,786 -499,1790 -286,2555 80,291 303,1066 297,1312 -1,31 14,124 -4,150 22,87 17,1243 -14,1337 -16,51 -93,305 -94,316 -4,32 -111,347 -128,430 -53,246 -93,279 -82,559 0,6 0,7 -7,6 35,136 2,419 103,608 10,19 108,366 110,391 14,161 160,668 198,854l0 7c-36,49 113,663 41,792 -76,136 -126,315 -252,425 -55,47 -239,324 -270,395 -51,119 -186,400 -180,530 0,4 -8,64 -10,66 14,94 -17,73 30,148 117,186 647,202 811,157 136,-38 513,-103 570,-236 41,-97 39,-26 39,-157 0,-56 -15,-436 6,-450 104,-68 93,-229 100,-343 3,-38 0,-97 0,-138 1,-3 -152,-441 -166,-526 -27,-159 -49,-215 -49,-394m0 0c5,-10 88,-1097 89,-1191 1,-54 76,-407 103,-476 58,-181 100,-147 152,-359 66,-271 62,-783 -1,-921 -13,-29 -45,-351 -45,-406 0,-233 -23,-321 75,-538 40,-89 40,-184 40,-279 42,-13 42,-833 79,-830 20,-95 43,-493 40,-569l4 -7c8,-18 5,-192 23,-263 11,-43 69,-573 99,-580 49,-181 66,-452 66,-642m673 -7962c-12,88 -76,149 28,237 56,47 62,94 148,119 80,23 102,33 188,52 105,23 248,62 258,61 206,16 210,9 288,18 232,29 550,-45 756,20 149,48 366,106 457,150 44,21 646,296 654,296m-21 -5c224,118 648,211 796,306 0,0 127,47 127,47 127,65 72,31 161,73 126,27 395,46 523,82 232,65 381,94 554,125 248,68 528,153 668,202 145,52 346,88 502,135 85,26 228,68 284,78 135,32 501,105 631,105 55,0 305,7 340,28 4,2 -200,-24 -195,-24m133 17c107,8 263,54 350,94 81,38 233,94 328,137 86,40 522,228 544,292 1,1 75,72 82,82 22,32 138,107 87,137 -90,54 -47,30 -160,35 -4,0 -263,-122 -281,-146 0,-1 -57,-25 -59,-36 -51,-17 -118,-69 -180,-76 -1,0 -31,-9 -36,-14m640 273c2,26 86,164 17,164 -156,0 -116,13 -240,-60 -31,-19 -75,-62 -118,-69 -12,-2 -219,-95 -238,-108 -11,-8 -40,-8 -51,-14m456 220c3,15 127,199 -81,127 -105,-36 -72,-21 -176,-75 -100,-53 -177,-111 -274,-163 -11,-6 -22,-14 -34,-17m104 57c64,102 143,64 186,277 3,14 -132,41 -170,-4 -22,-25 -322,-206 -397,-270 -78,-32 -43,-37 -161,-46 -47,-4 -301,-65 -356,-78 -74,-19 -321,-263 -410,-263m839 -222c39,51 17,36 69,86 32,30 62,89 132,152 42,39 226,210 167,259 -58,49 -255,26 -308,-25 -3,-2 -86,-41 -119,-72 -84,-78 -329,-127 -377,-179 -3,-4 -40,-26 -44,-39m-359 40c-142,-57 -859,4 -1035,9 -161,4 -394,11 -454,11 -71,0 -229,2 -366,13 -156,9 -423,11 -570,0 -210,-16 -489,-45 -677,-130 -260,-117 -717,-191 -1005,-269 -292,-79 -468,-163 -736,-293 -192,-92 -196,-47 -288,-62 -161,184 -29,117 -94,528 -32,206 -32,224 -164,540m19 -60c1,9 -252,749 -280,837 -22,71 -68,216 -86,278 -39,134 -92,204 -92,403 0,29 -3,56 -3,80 0,713 144,1119 265,1766 148,786 497,1790 285,2555 -80,291 -302,1066 -295,1312 1,31 -14,124 3,150 -21,87 -17,1243 14,1337 16,51 92,305 94,316 4,32 110,347 127,430 53,246 93,279 82,559 0,6 -1,7 6,6 -34,136 -1,419 -102,608 -10,19 -107,366 -110,391 -14,161 -159,668 -196,854l0 7c36,49 -113,663 -41,792 76,136 125,315 251,425 54,47 237,324 268,395 50,119 185,400 179,530 0,4 8,64 10,66 -14,94 16,73 -30,148 -117,186 -643,202 -806,157 -135,-38 -511,-103 -567,-236 -41,-97 -39,-26 -39,-157 0,-56 15,-436 -6,-450 -103,-68 -92,-229 -100,-343 -2,-38 1,-97 1,-138 -1,-3 151,-441 165,-526 27,-159 49,-215 49,-394m0 0c-5,-10 -88,-1097 -89,-1191 -1,-54 -76,-407 -102,-476 -58,-181 -100,-147 -152,-359 -65,-271 -61,-783 2,-921 12,-29 44,-351 44,-406 0,-233 23,-321 -74,-538 -40,-89 -41,-184 -41,-279 -41,-13 -41,-833 -78,-830 -20,-95 -43,-493 -40,-569l-3 -7c-9,-18 -6,-192 -24,-263 -11,-43 -68,-573 -98,-580 -49,-181 -66,-452 -66,-642"/>
   <path class="fil1 str1" d="M10283 11141c54,-143 96,-396 274,-126 12,19 -4,45 6,65"/>
  </g>
 </g>
</svg>
