<?xml version="1.0" encoding="UTF-8"?>
<!DOCTYPE svg PUBLIC "-//W3C//DTD SVG 1.1//EN" "http://www.w3.org/Graphics/SVG/1.1/DTD/svg11.dtd">
<!-- Creator: CorelDRAW X8 -->
<svg xmlns="http://www.w3.org/2000/svg" xml:space="preserve" width="210mm" height="297mm" version="1.1" style="shape-rendering:geometricPrecision; text-rendering:geometricPrecision; image-rendering:optimizeQuality; fill-rule:evenodd; clip-rule:evenodd"
viewBox="0 0 21000 29700"
 xmlns:xlink="http://www.w3.org/1999/xlink">
 <defs>
  <style type="text/css">
   <![CDATA[
    .str0 {stroke:#88401E;stroke-width:75}
    .fil1 {fill:none}
    .fil0 {fill:#C57F3A}
    .fil2 {fill:url(#id0)}
   ]]>
  </style>
  <linearGradient id="id0" gradientUnits="userSpaceOnUse" x1="8972.02" y1="14585.5" x2="12205.5" y2="26989.8">
   <stop offset="0" style="stop-opacity:1; stop-color:#C57F3A"/>
   <stop offset="1" style="stop-opacity:1; stop-color:#785029"/>
  </linearGradient>
 </defs>
 <g id="Слой_x0020_1">
  <metadata id="CorelCorpID_0Corel-Layer"/>
  <g id="_2084149585504">
   <path class="fil0" d="M8075 17778l-2160 1719c0,0 -781,886 -672,-3013 112,-3896 112,-3896 112,-3896l1036 -1236 2048 -1043 2571 370 1933 1108c0,0 -856,-167 1273,-404 2127,-238 2127,-238 2127,-238l750 -302 -407 2275 -1539 1148 -1461 894 -631 -201 -544 965c0,0 -1104,835 -2928,1725 -1824,890 -1375,758 -1508,129z"/>
   <path class="fil1 str0" d="M12943 11787c-123,-153 -863,-578 -1546,-924 -594,-302 -1702,-768 -2513,-679 -214,23 -408,84 -564,197 -153,108 -465,146 -785,251 -258,85 -523,214 -716,458 -350,439 -1176,153 -1430,1298 -24,119 -45,248 -58,397 -48,537 -95,938 -133,1308 -44,428 -67,812 -47,1304 10,309 41,659 92,1087 51,401 0,846 78,1298 27,146 64,295 125,445 129,305 112,856 289,1124 150,224 428,258 1033,-194 441,-329 978,-621 1528,-893 948,-469 1933,-876 2534,-1301 329,-234 1335,-982 1681,-1039 656,-112 387,-2150 387,-2137 0,951 -108,1610 1295,1294 47,-10 1508,-1375 1980,-1528 1015,-323 1681,-3702 615,-2449 -7,7 -2235,177 -2572,279 -808,241 -1080,-347 -1362,750 -166,656 -261,815 -261,1566"/>
   <path class="fil2" d="M7039 15981c0,0 -485,965 2697,89 3186,-873 3186,-873 3186,-873 0,0 -1457,1464 -4273,2911 -2815,1450 -2815,1450 -2815,1450l-568 -3848 1773 271z"/>
  </g>
 </g>
</svg>
