<?xml version="1.0" encoding="UTF-8" standalone="no"?>
<svg
   xmlns:dc="http://purl.org/dc/elements/1.1/"
   xmlns:cc="http://creativecommons.org/ns#"
   xmlns:rdf="http://www.w3.org/1999/02/22-rdf-syntax-ns#"
   xmlns:svg="http://www.w3.org/2000/svg"
   xmlns="http://www.w3.org/2000/svg"
   xmlns:sodipodi="http://sodipodi.sourceforge.net/DTD/sodipodi-0.dtd"
   xmlns:inkscape="http://www.inkscape.org/namespaces/inkscape"
   id="svg3758"
   viewBox="0 0 18558.6 19678.6"
   style="clip-rule:evenodd;fill-rule:evenodd;image-rendering:optimizeQuality;shape-rendering:geometricPrecision;text-rendering:geometricPrecision"
   version="1.1"
   height="196.786mm"
   width="185.586mm"
   xml:space="preserve"
   sodipodi:docname="liver.svg"
   inkscape:version="0.92.4 5da689c313, 2019-01-14"><sodipodi:namedview
   pagecolor="#ffffff"
   bordercolor="#666666"
   borderopacity="1"
   objecttolerance="10"
   gridtolerance="10"
   guidetolerance="10"
   inkscape:pageopacity="0"
   inkscape:pageshadow="2"
   inkscape:window-width="3200"
   inkscape:window-height="1763"
   id="36"
   showgrid="false"
   inkscape:zoom="2.114935"
   inkscape:cx="352.60501"
   inkscape:cy="371.87905"
   inkscape:window-x="0"
   inkscape:window-y="18"
   inkscape:window-maximized="0"
   inkscape:current-layer="svg3758" /><metadata
   id="metadata3762"><rdf:RDF><cc:Work
       rdf:about=""><dc:format>image/svg+xml</dc:format><dc:type
         rdf:resource="http://purl.org/dc/dcmitype/StillImage" /><dc:title></dc:title></cc:Work></rdf:RDF></metadata> 
<path
   id="path4672"
   d="m 7922.6296,7870.6723 c -21.4031,-4.2533 -36.781,-10.1775 -51.6353,-19.8925 -67.4422,-44.1091 -85.1106,-88.1655 -93.7158,-233.6787 -5.4529,-92.2088 -7.9295,-104.2785 -46.1358,-224.8473 -32.7955,-103.4955 -45.2247,-153.3668 -53.1643,-213.3169 -4.6233,-34.9082 -4.6831,-137.1494 -0.1011,-172.9601 11.8459,-92.5871 40.923,-158.8617 96.9812,-221.0509 44.8902,-49.799 88.8372,-83.424 145.6081,-111.4081 35.7572,-17.6257 55.1589,-25.1443 96.4111,-37.3635 73.5689,-21.791 92.8109,-24.0244 207.2295,-24.0547 113.8584,-0.032 120.9401,0.7378 245.0262,26.5992 52.4531,10.9316 120.0457,25.7683 201.0699,44.1336 l 46.3669,10.51 150.6149,1.233 c 165.6221,1.3555 211.2013,2.9812 244.8412,8.7326 57.2969,9.7954 134.3479,39.1872 179.1157,68.3259 69.5863,45.2918 105.8403,102.867 109.4433,173.8072 2.8653,56.4138 -12.7894,105.1967 -49.645,154.7028 -50.0252,67.1959 -86.1381,87.0513 -272.6043,149.8796 -178.7387,60.2246 -253.4996,92.9748 -331.9087,145.3995 -45.0178,30.0995 -74.4918,53.7323 -145.6081,116.7542 -97.6035,86.4944 -142.2274,122.2303 -218.1656,174.7146 -122.0353,84.3428 -210.6013,135.1987 -282.1364,162.0065 -49.2453,18.4553 -83.4811,24.8439 -131.7165,24.5793 -19.3646,-0.1062 -38.4086,-1.2632 -46.1711,-2.8053 z m 94.8866,-114.8331 c 62.1999,-16.2689 151.1691,-63.2022 271.9313,-143.4514 48.6691,-32.3417 82.1763,-56.4075 116.2674,-83.5069 71.1463,-56.5546 165.8197,-141.823 227.7302,-205.1063 36.5396,-37.3498 50.007,-55.6786 68.2947,-92.9498 21.2992,-43.4091 27.7025,-70.0741 27.6889,-115.3069 -0.011,-36.397 -1.7729,-47.7899 -14.8617,-96.0882 -12.2752,-45.2968 -13.2927,-61.6883 -4.7332,-76.2491 17.1602,-29.1914 54.2177,-35.0182 82.1739,-12.9199 16.2264,12.8263 25.2771,30.4821 35.5603,69.3702 15.3752,58.1446 19.0351,151.3256 7.7597,197.5627 -5.199,21.319 -5.1826,21.1392 -1.9326,21.1392 1.6729,0 12.1497,-3.8906 23.2821,-8.6459 32.5936,-13.9224 81.0936,-31.5738 160.162,-58.2898 167.5639,-56.6175 206.4321,-75.1142 237.1919,-112.8749 21.29,-26.1359 31.9681,-50.4293 33.3113,-75.7853 2.3681,-44.705 -22.63,-77.1579 -84.1193,-109.2061 -48.7721,-25.4202 -90.8002,-36.3926 -164.2835,-42.89 -14.5816,-1.2896 -91.7927,-2.7356 -185.4512,-3.4746 l -160.4683,-1.2651 -64.3794,-14.902 c -103.8858,-24.0464 -220.9294,-48.7785 -273.8528,-57.8668 -83.0786,-14.2667 -185.0622,-14.285 -255.6884,-0.044 -51.1846,10.3196 -101.7535,28.0923 -140.1973,49.273 -98.9224,54.5029 -160.7244,141.8369 -169.9323,240.1366 -4.0019,42.7215 -2.1517,119.026 3.9102,161.2454 3.3847,23.5744 19.8641,86.453 35.5429,135.616 35.6768,111.8713 47.2193,153.9883 54.4764,198.7781 4.5234,27.9187 7.736,68.8436 7.7694,98.9657 0.032,25.6507 3.073,60.3416 6.9749,79.4717 6.6991,32.8476 24.8564,55.5505 50.325,62.9238 13.6867,3.9624 47.1414,2.2027 69.5475,-3.6574 z"
   style="fill:#000000;stroke-width:1.92177451;stroke:none"
   inkscape:label="liver" /></svg>