<?xml version="1.0" encoding="UTF-8" standalone="no"?>
<svg
   xmlns:dc="http://purl.org/dc/elements/1.1/"
   xmlns:cc="http://creativecommons.org/ns#"
   xmlns:rdf="http://www.w3.org/1999/02/22-rdf-syntax-ns#"
   xmlns:svg="http://www.w3.org/2000/svg"
   xmlns="http://www.w3.org/2000/svg"
   xmlns:sodipodi="http://sodipodi.sourceforge.net/DTD/sodipodi-0.dtd"
   xmlns:inkscape="http://www.inkscape.org/namespaces/inkscape"
   xml:space="preserve"
   width="185.586mm"
   height="196.786mm"
   version="1.1"
   style="clip-rule:evenodd;fill-rule:evenodd;image-rendering:optimizeQuality;shape-rendering:geometricPrecision;text-rendering:geometricPrecision"
   viewBox="0 0 18558.6 19678.6"
   id="body"
   sodipodi:docname="prostate.svg"
   inkscape:version="0.92.4 5da689c313, 2019-01-14"><metadata
   id="metadata3762"><rdf:RDF><cc:Work
       rdf:about=""><dc:format>image/svg+xml</dc:format><dc:type
         rdf:resource="http://purl.org/dc/dcmitype/StillImage" /><dc:title></dc:title></cc:Work></rdf:RDF></metadata><sodipodi:namedview
   pagecolor="#ffffff"
   bordercolor="#666666"
   borderopacity="1"
   objecttolerance="10"
   gridtolerance="10"
   guidetolerance="10"
   inkscape:pageopacity="0"
   inkscape:pageshadow="2"
   inkscape:window-width="3200"
   inkscape:window-height="1763"
   id="namedview3760"
   showgrid="false"
   inkscape:zoom="1.4013117"
   inkscape:cx="532.91019"
   inkscape:cy="493.76872"
   inkscape:window-x="0"
   inkscape:window-y="18"
   inkscape:window-maximized="0"
   inkscape:current-layer="body" />
 <defs
   id="defs3750">
  <style
   type="text/css"
   id="style3748">
   <![CDATA[
    .str1 {stroke:#C3B09C;stroke-width:75}
    .str0 {stroke:#C3B09C;stroke-width:75;stroke-linejoin:round}
    .fil0 {fill:none}
   ]]>
  </style>
 </defs>
 
<path
   style="fill:#0d0d0d;stroke-width:1.40294468"
   d="m 9289.5347,10069.998 c 0.06,-0.734 -5.4051,-6.515 -12.1453,-12.845 l -12.2543,-11.509 0.4728,-18.022 c 0.2602,-9.912 -0.2183,-24.512 -1.0641,-32.4421 -1.6294,-15.285 -9.9595,-60.386 -11.5121,-62.329 -0.5058,-0.633 -6.0343,-2.488 -12.2852,-4.122 -93.4174,-24.423 -169.0012,-94.119 -210.0553,-193.692 -10.4789,-25.416 -17.5767,-48.359 -22.4454,-72.555 -15.8764,-78.896 -3.7504,-148.018 29.1072,-165.919 14.8594,-8.097 14.8922,-6.47 -0.3162,-15.726 -73.2134,-44.565 -133.3709,-128.4711 -172.2818,-240.2968 -24.8155,-71.3171 -42.5788,-164.2532 -47.7013,-249.5732 -3.8899,-64.7793 -0.2076,-95.9544 15.8412,-134.1207 15.4256,-36.6847 38.2422,-66.4622 71.7156,-93.5955 69.2737,-56.1531 173.9492,-88.2083 310.3466,-95.0388 117.5842,-5.8886 258.5392,7.9366 354.6922,34.788 169.507,47.3368 266.949,141.7221 295.846,286.5666 10.272,51.4853 12.843,121.9828 5.972,163.7797 -13.435,81.7344 -57.808,157.4588 -136.95,233.7132 -16.344,15.7469 -58.834,51.5955 -78.483,66.2165 -27.196,20.234 -69.961,48.34 -94.079,61.829 -4.227,2.364 -7.758,4.983 -7.846,5.82 -0.09,0.837 3.392,2.616 7.734,3.953 14.872,4.577 26.796,12.51 36.852,24.521 5.063,6.046 10.627,14.29 12.365,18.321 4.606,10.68 8.103,29.795 9.513,52.005 6.098,96.073 -22.384,167.244 -88.713,221.675 -22.523,18.484 -35.48,26.878 -83.747,54.257 -58.7895,33.349 -63.7305,38.061 -80.2377,76.527 -11.3793,26.519 -15.0558,41.0681 -16.9001,66.8871 -29.7824,59.397 -42.8065,63.325 -61.4408,30.927 z m 22.0688,-3.534 c -0.265,-6.112 2.5629,-20.543 19.7521,-100.7891 4.3966,-20.524 5.2478,-41.443 2.968,-72.954 -1.8612,-25.733 -1.0403,-40.174 3.188,-56.044 9.9601,-37.388 13.1788,-92.418 8.8901,-152.007 -2.5614,-35.588 2.3177,-124.079 7.3804,-133.864 2.0408,-3.945 2.1902,-5.424 0.9471,-9.379 -2.3252,-7.397 7.3665,-83.94 14.1568,-111.805 2.901,-11.9046 6.2796,-17.4942 14.7117,-24.3419 9.3889,-7.6242 18.1967,-11.9055 62.4096,-30.3365 74.212,-30.9354 98.933,-46.9439 128.895,-83.4636 32.131,-39.1653 40.036,-46.6907 70.293,-66.9084 40.911,-27.3378 52.266,-37.6063 66.615,-60.238 20.675,-32.6075 33.223,-76.5703 40.086,-140.4294 4.273,-39.752 4.834,-68.1867 1.534,-77.6733 -4.969,-14.2831 -20.728,-29.9349 -44.451,-44.1478 -23.186,-13.8918 -48.691,-24.4827 -115.409,-47.9262 -12.957,-4.5527 -27.375,-10.2663 -32.04,-12.6973 -11.76,-6.1267 -20.579,-8.873 -42.256,-13.1571 -60.989,-12.0541 -162.3612,-19.4252 -228.7657,-16.6342 -24.6071,1.0346 -97.2006,10.8658 -129.9392,17.5982 -60.7475,12.4916 -101.7569,31.9407 -141.2879,67.0069 -32.3292,28.6781 -51.9876,57.7238 -60.4135,89.262 -2.8268,10.5804 -4.9567,35.9923 -4.0286,48.0616 1.3016,16.9313 5.6375,34.393 13.2945,53.54 12.9332,32.3397 22.6565,46.42 65.4542,94.7806 22.8574,25.8292 44.6951,58.4214 84.5454,126.1846 24.9259,42.385 20.6515,38.6503 82.2,71.8213 43.8301,23.6219 68.9133,41.7782 86.4171,62.5515 8.9375,10.607 12.5479,16.239 15.8017,24.65 6.1032,15.779 6.3773,21.176 2.7443,54.049 -3.377,30.559 -3.2662,30.208 -10.8827,34.56 -2.7486,1.571 -2.7044,1.738 1.0753,4.102 7.4772,4.677 8.132,6.765 8.2576,26.333 0.2532,39.422 3.034,69.984 14.1304,155.292 15.6496,120.313 15.8321,137.13 2.4717,227.392 -3.3849,22.869 -7.6067,54.1961 -9.382,69.6141 -1.7752,15.418 -3.8324,29.009 -4.5724,30.201 -1.6079,2.592 -0.6594,4.002 2.8882,4.292 2.3004,0.188 2.5767,-0.585 2.3211,-6.496 z m -19.3143,-40.29 c 1.107,-7.846 5.1264,-35.8631 8.9317,-62.2611 12.6342,-87.65 12.3989,-102.353 -3.5988,-224.813 -9.4398,-72.263 -13.5379,-115.879 -13.5276,-143.983 0.01,-21.427 2.1462,-18.283 -22.399,-32.935 -38.1777,-22.792 -75.2262,-39.559 -110.5776,-50.045 -12.2642,-3.638 -19.2013,-4.742 -41.3047,-6.57 -29.4008,-2.437 -39.7129,-1.392 -57.4265,5.802 -12.947,5.259 -20.7899,16.532 -26.3165,37.825 -14.2584,54.935 0.5749,138.83 36.8996,208.698 41.747,80.298 107.5326,133.567 189.5762,153.511 9.2891,2.257 14.5849,4.265 16.1971,6.138 2.5973,3.017 10.7547,40.841 14.4094,66.815 1.2205,8.673 2.2465,23.9601 2.2793,33.9701 0.056,16.803 0.9051,21.789 3.7517,22.022 0.6011,0.05 1.9985,-6.33 3.1057,-14.174 z m 70.3205,-88.5371 c 11.4221,-19.711 26.1916,-31.298 74.5306,-58.468 51.478,-28.936 73.562,-43.905 96.979,-65.736 50.223,-46.823 71.866,-109.408 66.628,-192.662 -1.968,-31.275 -5.804,-44.831 -16.442,-58.098 -17.904,-22.329 -49.152,-28.046 -117.657,-21.527 -33.933,3.229 -61.8196,8.762 -82.6841,16.405 -6.1497,2.253 -11.7305,4.822 -12.4024,5.71 -1.7117,2.263 -5.0978,45.512 -6.0079,76.74 -0.4196,14.404 -0.061,36.604 0.7975,49.332 2.5013,37.1 2.3942,56.228 -0.5159,91.949 -2.1803,26.757 -3.5688,36.916 -6.8511,50.114 -5.2501,21.111 -6.6335,40.377 -4.7229,65.773 0.8206,10.906 1.2755,26.918 1.0113,35.58 -0.2643,8.664 0.01,15.504 0.6001,15.201 0.594,-0.303 3.6257,-4.944 6.7368,-10.313 z m -97.3575,-400.443 c -13.9776,-10.776 -42.5054,-28.26 -61.5229,-37.708 -33.2391,-16.514 -65.72,-25.259 -89.3626,-24.06 -12.9123,0.655 -30.0315,4.423 -31.0428,6.833 -0.3706,0.882 7.2381,1.826 21.6242,2.683 33.6772,2.006 63.9908,9.972 103.0453,27.077 16.4248,7.193 52.0936,25.325 59.9703,30.484 1.8371,1.203 4.283,2.277 5.4353,2.386 1.1528,0.104 -2.5137,-3.353 -8.1468,-7.695 z m 21.1039,-25.759 c 1.1452,-6.813 1.9909,-15.631 1.8787,-19.597 -0.651,-23.112 -21.2703,-48.039 -60.7829,-73.4834 -6.2516,-4.0259 -24.6944,-14.5497 -40.985,-23.3866 -57.6658,-31.2818 -58.9368,-32.3149 -76.7384,-62.3694 -52.3111,-88.3172 -74.4931,-121.4203 -97.0667,-144.8579 -32.1558,-33.3858 -52.4809,-63.8689 -65.1262,-97.6756 -30.8768,-82.545 -8.0304,-154.3035 69.3925,-217.9588 39.4386,-32.4252 84.3336,-51.9209 146.4878,-63.6128 24.6256,-4.6321 92.2165,-14.2894 110.3222,-15.7623 89.6775,-7.2953 263.0812,10.5296 295.1432,30.3386 2.894,1.7876 18.388,7.8598 34.43,13.4944 68.376,24.0137 93.461,34.6399 119.932,50.8034 21.011,12.8291 39.42,31.146 46.795,46.5599 6.635,13.8696 6.879,20.625 2.638,73.3782 -3.067,38.1929 -4.746,52.4284 -8.039,68.3165 -12.171,58.7085 -29.811,97.722 -57.192,126.4862 -7.97,8.372 -27.907,23.3623 -59.981,45.0988 -18.604,12.6079 -25.722,19.284 -44.573,41.8039 -25.588,30.5697 -31.733,37.2211 -43.145,46.7054 -24.85,20.6495 -52.673,35.5527 -113.173,60.6172 -38.8106,16.0789 -51.8597,22.9975 -55.5803,29.4683 -3.486,6.063 -12.732,59.248 -14.9269,85.864 -0.7992,9.763 -1.5847,9.659 19.7986,2.613 36.1916,-11.928 104.5126,-19.576 136.3946,-15.268 l 14.936,2.018 16.691,-10.086 c 125.434,-75.7891 220.362,-169.4124 262.036,-258.4324 20.052,-42.8319 28.815,-79.8359 29.457,-124.3791 2.617,-181.57 -64.587,-293.9555 -214.874,-359.3318 -85.487,-37.188 -208.168,-59.2122 -345.4258,-62.0127 -252.2917,-5.1474 -416.9952,68.802 -453.2444,203.4994 -13.4283,49.8978 -4.2956,168.9865 20.8721,272.1613 23.9874,98.3378 60.3882,176.3453 109.5765,234.8253 23.8872,28.399 45.8286,48.074 73.4805,65.893 12.747,8.213 13.0646,8.332 16.8554,6.316 48.6706,-25.894 107.2979,-15.822 184.3525,31.671 10.9206,6.732 23.1391,14.688 27.1521,17.682 4.013,2.994 7.9382,5.341 8.7228,5.214 0.7845,-0.126 2.3634,-5.803 3.5091,-12.614 z"
   id="path1041"
   inkscape:connector-curvature="0"
   sodipodi:nodetypes="csccccccscssscsssssssccsccscscccccsccccscssscsccccssscccssssccscscssscsccccscssscssccsssccsssssccsccssccccsscsccccccssssssscssscsccssssccsscsssssssssccccc" /></svg>