<?xml version="1.0" encoding="UTF-8" standalone="no"?>
<svg
   xmlns:dc="http://purl.org/dc/elements/1.1/"
   xmlns:cc="http://creativecommons.org/ns#"
   xmlns:rdf="http://www.w3.org/1999/02/22-rdf-syntax-ns#"
   xmlns:svg="http://www.w3.org/2000/svg"
   xmlns="http://www.w3.org/2000/svg"
   xmlns:sodipodi="http://sodipodi.sourceforge.net/DTD/sodipodi-0.dtd"
   xmlns:inkscape="http://www.inkscape.org/namespaces/inkscape"
   xml:space="preserve"
   width="185.586mm"
   height="196.786mm"
   version="1.1"
   style="clip-rule:evenodd;fill-rule:evenodd;image-rendering:optimizeQuality;shape-rendering:geometricPrecision;text-rendering:geometricPrecision"
   viewBox="0 0 18558.6 19678.6"
   id="46"
   sodipodi:docname="skinsun.svg"
   inkscape:version="0.92.4 5da689c313, 2019-01-14"><metadata
   id="metadata3762"><rdf:RDF><cc:Work
       rdf:about=""><dc:format>image/svg+xml</dc:format><dc:type
         rdf:resource="http://purl.org/dc/dcmitype/StillImage" /><dc:title></dc:title></cc:Work></rdf:RDF></metadata><sodipodi:namedview
   pagecolor="#ffffff"
   bordercolor="#666666"
   borderopacity="1"
   objecttolerance="10"
   gridtolerance="10"
   guidetolerance="10"
   inkscape:pageopacity="0"
   inkscape:pageshadow="2"
   inkscape:window-width="3200"
   inkscape:window-height="1763"
   id="namedview3760"
   showgrid="false"
   inkscape:zoom="2.8026235"
   inkscape:cx="373.68238"
   inkscape:cy="531.14252"
   inkscape:window-x="0"
   inkscape:window-y="18"
   inkscape:window-maximized="0"
   inkscape:current-layer="svg3758" />
 <defs
   id="defs3750">
  <style
   type="text/css"
   id="style3748">
   <![CDATA[
    .str1 {stroke:#C3B09C;stroke-width:75}
    .str0 {stroke:#C3B09C;stroke-width:75;stroke-linejoin:round}
    .fil0 {fill:none}
   ]]>
  </style>
 </defs>
 <g
   id="Слой_x0020_1"
   transform="translate(-1118.7115,-765.47129)"
   style="stroke-width:132.2916634;stroke-miterlimit:4;stroke-dasharray:none;stroke:#a05a2c">
  <metadata
   id="CorelCorpID_0Corel-Layer" />
  <path
   class="fil0 str0"
   d="m 10381,806 c 212,-1 684,130 826,275 353,362 235,285 315,565 29,100 10,385 -53,595 -32,105 0,0 -126,299 -65,155 -219,400 -361,526 -22,20 -5,39 -26,52 -7,5 -18,109 -28,109 M 10387,803 c -205,0 -661,133 -798,280 -340,363 -225,285 -302,566 -27,100 -8,385 54,595 32,105 0,0 124,298 64,155 214,399 352,525 21,19 42,36 63,49 6,4 8,2 18,2 m -9,0 c 12,88 75,149 -29,237 -56,47 -63,94 -149,119 -80,23 -102,33 -188,52 -107,23 -251,62 -261,61 -206,16 -210,9 -288,18 -234,29 -554,-45 -761,20 -150,48 -368,106 -460,150 -43,21 -649,296 -657,296 m 21,-5 c -226,118 -651,211 -800,306 0,0 -128,47 -128,47 -128,64 -73,31 -162,73 -127,27 -398,45 -526,82 -233,65 -383,94 -558,125 -249,68 -531,153 -671,202 -146,52 -348,88 -504,135 -86,26 -230,68 -286,78 -136,32 -504,105 -635,105 -55,0 -307,7 -342,28 -3,2 201,-24 196,-24 m -133,17 c -108,8 -265,54 -352,94 -81,38 -235,93 -330,137 -87,40 -525,228 -548,292 0,1 -74,72 -81,82 -23,32 -139,107 -88,137 90,54 47,30 161,35 4,0 264,-122 282,-146 0,-1 57,-25 60,-36 51,-17 119,-69 181,-76 1,0 31,-9 36,-14 m -644,273 c -1,26 -87,164 -17,164 157,0 117,13 242,-60 31,-18 75,-62 119,-69 11,-1 220,-95 238,-108 11,-8 41,-8 52,-14 m -459,220 c -2,15 -127,199 82,127 105,-36 72,-21 176,-75 101,-53 179,-111 277,-163 10,-6 21,-14 34,-17 m -105,57 c -64,102 -143,64 -187,277 -3,14 132,41 171,-4 22,-25 324,-206 399,-270 78,-32 43,-37 162,-46 47,-4 302,-65 358,-78 75,-19 323,-263 412,-263 m -843,-222 c -40,51 -17,36 -70,86 -32,30 -62,89 -132,152 -43,39 -228,210 -169,259 59,49 257,26 310,-25 3,-2 87,-41 120,-72 84,-78 331,-127 379,-179 3,-4 40,-26 44,-39 m 361,40 c 143,-57 864,4 1041,9 162,4 397,11 456,11 72,0 230,1 368,13 157,9 426,11 573,0 212,-16 493,-45 682,-130 261,-117 720,-191 1011,-269 292,-79 469,-163 740,-293 192,-92 196,-47 288,-62 162,184 30,117 95,528 33,206 33,224 165,540 m -19,-60 c -1,9 253,749 281,837 23,71 69,215 87,278 40,134 93,204 93,403 0,29 3,56 3,80 0,713 -145,1119 -267,1766 -148,786 -499,1790 -286,2555 80,291 303,1066 297,1312 -1,31 14,124 -4,150 22,87 17,1243 -14,1337 -16,51 -93,305 -94,316 -4,32 -111,347 -128,430 -53,246 -93,279 -82,559 0,6 0,7 -7,6 35,136 2,419 103,608 10,19 108,366 110,391 14,161 160,668 198,854 v 7 c -36,49 113,663 41,792 -76,136 -126,315 -252,425 -55,47 -239,324 -270,395 -51,119 -186,400 -180,530 0,4 -8,64 -10,66 14,94 -17,73 30,148 117,186 647,202 811,157 136,-38 513,-103 570,-236 41,-97 39,-26 39,-157 0,-56 -15,-436 6,-450 104,-68 93,-229 100,-343 3,-38 0,-97 0,-138 1,-3 -152,-441 -166,-526 -27,-159 -49,-215 -49,-394 m 0,0 c 5,-10 88,-1097 89,-1191 1,-54 76,-407 103,-476 58,-181 100,-147 152,-359 66,-271 62,-783 -1,-921 -13,-29 -45,-351 -45,-406 0,-233 -23,-321 75,-538 40,-89 40,-184 40,-279 42,-13 42,-833 79,-830 20,-95 43,-493 40,-569 l 4,-7 c 8,-18 5,-192 23,-263 11,-43 69,-573 99,-580 49,-181 66,-452 66,-642 m 673,-7962 c -12,88 -76,149 28,237 56,47 62,94 148,119 80,23 102,33 188,52 105,23 248,62 258,61 206,16 210,9 288,18 232,29 550,-45 756,20 149,48 366,106 457,150 44,21 646,296 654,296 m -21,-5 c 224,118 648,211 796,306 0,0 127,47 127,47 127,65 72,31 161,73 126,27 395,46 523,82 232,65 381,94 554,125 248,68 528,153 668,202 145,52 346,88 502,135 85,26 228,68 284,78 135,32 501,105 631,105 55,0 305,7 340,28 4,2 -200,-24 -195,-24 m 133,17 c 107,8 263,54 350,94 81,38 233,94 328,137 86,40 522,228 544,292 1,1 75,72 82,82 22,32 138,107 87,137 -90,54 -47,30 -160,35 -4,0 -263,-122 -281,-146 0,-1 -57,-25 -59,-36 -51,-17 -118,-69 -180,-76 -1,0 -31,-9 -36,-14 m 640,273 c 2,26 86,164 17,164 -156,0 -116,13 -240,-60 -31,-19 -75,-62 -118,-69 -12,-2 -219,-95 -238,-108 -11,-8 -40,-8 -51,-14 m 456,220 c 3,15 127,199 -81,127 -105,-36 -72,-21 -176,-75 -100,-53 -177,-111 -274,-163 -11,-6 -22,-14 -34,-17 m 104,57 c 64,102 143,64 186,277 3,14 -132,41 -170,-4 -22,-25 -322,-206 -397,-270 -78,-32 -43,-37 -161,-46 -47,-4 -301,-65 -356,-78 -74,-19 -321,-263 -410,-263 m 839,-222 c 39,51 17,36 69,86 32,30 62,89 132,152 42,39 226,210 167,259 -58,49 -255,26 -308,-25 -3,-2 -86,-41 -119,-72 -84,-78 -329,-127 -377,-179 -3,-4 -40,-26 -44,-39 m -359,40 c -142,-57 -859,4 -1035,9 -161,4 -394,11 -454,11 -71,0 -229,2 -366,13 -156,9 -423,11 -570,0 -210,-16 -489,-45 -677,-130 -260,-117 -717,-191 -1005,-269 -292,-79 -468,-163 -736,-293 -192,-92 -196,-47 -288,-62 -161,184 -29,117 -94,528 -32,206 -32,224 -164,540 m 19,-60 c 1,9 -252,749 -280,837 -22,71 -68,216 -86,278 -39,134 -92,204 -92,403 0,29 -3,56 -3,80 0,713 144,1119 265,1766 148,786 497,1790 285,2555 -80,291 -302,1066 -295,1312 1,31 -14,124 3,150 -21,87 -17,1243 14,1337 16,51 92,305 94,316 4,32 110,347 127,430 53,246 93,279 82,559 0,6 -1,7 6,6 -34,136 -1,419 -102,608 -10,19 -107,366 -110,391 -14,161 -159,668 -196,854 v 7 c 36,49 -113,663 -41,792 76,136 125,315 251,425 54,47 237,324 268,395 50,119 185,400 179,530 0,4 8,64 10,66 -14,94 16,73 -30,148 -117,186 -643,202 -806,157 -135,-38 -511,-103 -567,-236 -41,-97 -39,-26 -39,-157 0,-56 15,-436 -6,-450 -103,-68 -92,-229 -100,-343 -2,-38 1,-97 1,-138 -1,-3 151,-441 165,-526 27,-159 49,-215 49,-394 m 0,0 c -5,-10 -88,-1097 -89,-1191 -1,-54 -76,-407 -102,-476 -58,-181 -100,-147 -152,-359 -65,-271 -61,-783 2,-921 12,-29 44,-351 44,-406 0,-233 23,-321 -74,-538 -40,-89 -41,-184 -41,-279 -41,-13 -41,-833 -78,-830 -20,-95 -43,-493 -40,-569 l -3,-7 c -9,-18 -6,-192 -24,-263 -11,-43 -68,-573 -98,-580 -49,-181 -66,-452 -66,-642"
   id="path3753"
   inkscape:connector-curvature="0"
   style="fill:none;stroke:#a05a2c;stroke-width:132.2916634;stroke-linejoin:round;stroke-miterlimit:4;stroke-dasharray:none" />
  <path
   class="fil0 str1"
   d="m 10283,11141 c 54,-143 96,-396 274,-126 12,19 -4,45 6,65"
   id="path3755"
   inkscape:connector-curvature="0"
   style="fill:none;stroke:#a05a2c;stroke-width:132.2916634;stroke-miterlimit:4;stroke-dasharray:none" />
 </g>
</svg>